<svg id="Слой_2" data-name="Слой 2" xmlns="http://www.w3.org/2000/svg" xmlns:xlink="http://www.w3.org/1999/xlink" viewBox="0 0 1230.22 921.93"><defs><style>.cls-1{fill:url(#Безымянный_градиент_53);}.cls-2{fill:url(#Безымянный_градиент_53-2);}.cls-3{fill:url(#Безымянный_градиент_53-3);}.cls-4{fill:none;stroke:#020202;stroke-miterlimit:10;stroke-width:5px;opacity:0.63;}</style><radialGradient id="Безымянный_градиент_53" cx="1103.57" cy="611.91" r="0.2" gradientUnits="userSpaceOnUse"><stop offset="0" stop-color="#fff"/><stop offset="1" stop-color="#67eddc"/></radialGradient><radialGradient id="Безымянный_градиент_53-2" cx="1103.75" cy="611.61" r="0.05" xlink:href="#Безымянный_градиент_53"/><radialGradient id="Безымянный_градиент_53-3" cx="1103.39" cy="612.2" r="0.04" xlink:href="#Безымянный_градиент_53"/></defs><path class="cls-1" d="M1103.71,611.67l-.29.48Z"/><path class="cls-2" d="M1103.78,611.55l-.07.12Z"/><path class="cls-3" d="M1103.42,612.15l-.06.1Z"/><path class="cls-4" d="M1176.14,311.34c-.11-1-.71-2-.85-3C1157.81,176.05,1032.75,73.49,881.08,73.49c-120.83,0-224.76,65.09-270.87,158.44L549.46,162.1S503.83,213.68,477.22,225s-423.17,0-423.17,0S68.67,298.82,68.42,315,54.05,405.1,54.05,405.1s366.81-18.38,423.2,0,72.21,62.82,72.21,62.82l29.76-34.2a96.54,96.54,0,0,0,5.68,13.22,11.2,11.2,0,0,1-.48,11.36l-62.07,94.83a24.15,24.15,0,0,0,12.19,36l26.83,9.44a11.28,11.28,0,0,1,7.14,7.69s3.51,23.21,1.42,25.15c-6.63,6.13-11.78,13.34-11.86,21.78,0,4.47,5.88,8.71,10.64,11.08,19.54,9.71,13.34,8.9,1.36,17.21-14.22,9.88-5.46,24.46,3.16,26.08,6.92,1.29,16.63,3.11,14.2,9.72-6.7,18.24-12.56,40.16-10.24,55.76,8.39,29.73,55.56,20.35,90.41,13.56.76-.15,45.68-11.79,69.39-3s33.38,44.26,33.38,44.26a11.26,11.26,0,0,0,11.26,11.26H1075.4a11.24,11.24,0,0,0,11.16-12.79c-4.2-29.18-13.55-53.66-16-84.4-1.76-21.72,24-115.12,32.83-129.67,8-13.21,2.13-3.5.43-.71L1114.41,594h0L1147,540.37,1157,523.74v0h0l.59-.94a.72.72,0,0,0,.09-.2,134.53,134.53,0,0,0,11.1-31.11C1184.48,421.9,1181.63,362.81,1176.14,311.34Z"/></svg>