<svg id="Слой_2" data-name="Слой 2" xmlns="http://www.w3.org/2000/svg" viewBox="0 0 2000 1000"><defs><style>.cls-1{fill:#9e9e9e;}</style></defs><path class="cls-1" d="M877.92,621.73c2-3.53,26.34-34.44,44.54-37.44h.17c1.59-.21,27.45-3.63,35.15-13.67a3.91,3.91,0,0,0,.77-1.74c.48-2.74,2.06-11.19,3.64-12.09l5.56-3.18a4,4,0,0,0,2-3.44v-7.65a.92.92,0,0,1,1.45-.75l.07.06a1.74,1.74,0,0,0,2.52-2.31c-7-11.34-9.42-26.75-13.48-28.3-5.41-2.07-8.36-17.53-9.14-25.08-.34-3.22.49-5.16,1.55-6.33a7.16,7.16,0,0,0,1.72-6.37,191.61,191.61,0,0,1-3-19.66c-2.7-23.19,17.8-37.22,21-40.72a7.49,7.49,0,0,1,5.08-2.4,4.9,4.9,0,0,0,3.49-2.07c4.38-5.76,26.86-4.22,37,2.31,7.87,5.06,19.12,6.08,25.26,6.23a3.94,3.94,0,0,1,3.7,5.08,81.69,81.69,0,0,1-3.24,8.5,5.91,5.91,0,0,0-.23,4.1c6.82,22.44-7.06,31,0,45,6.51,12.85-3.39,25.58-5.55,28.12a3.81,3.81,0,0,0-.65,1.1c-1.06,2.73-5.19,13.55-6.36,20a124.92,124.92,0,0,0-1.35,16.73,4.49,4.49,0,0,0,0,.51c.12,1,.58,4.92.78,6.22s4.92,2.09,6.47,5.13a31.91,31.91,0,0,1,2.87,8.17,7.84,7.84,0,0,0,2.75,4.92c6.69,5.47,25.52,18.67,50.39,17.75a10.87,10.87,0,0,1,4.23.65c5.89,2.21,21.51,9.83,25.14,29.28a4,4,0,0,1-3.89,4.73H878.71A.91.91,0,0,1,877.92,621.73Z"/></svg>