<svg id="Слой_2" data-name="Слой 2" xmlns="http://www.w3.org/2000/svg" viewBox="0 0 323.56 323.56"><defs><style>.cls-1{fill:#ec624b;}.cls-2{fill:#f39784;}.cls-3{fill:#7682bf;}.cls-4{fill:#db6d23;}.cls-5{fill:#41d8a6;}.cls-6{fill:#319370;}.cls-7{fill:#f9c7be;}.cls-8,.cls-9{fill:none;stroke-miterlimit:10;}.cls-8{stroke:#000;}.cls-9{stroke:#cc7a6e;}.cls-10{fill:#2e4d7e;}.cls-11{fill:#1e2d51;}.cls-12{fill:#ae8932;}.cls-13{fill:#e2a6a1;}</style></defs><path class="cls-1" d="M78.37,293.19h78.52S120.59,261.7,78.37,293.19Z"/><polygon class="cls-2" points="113.11 228.51 113.11 280.59 122.15 280.59 122.15 230.29 113.11 228.51"/><path class="cls-1" d="M98.07,217.63s32.1,1.1,40.3-1.19c0,0-5.41,10.67-16.3,12.45S101.41,223.93,98.07,217.63Z"/><path class="cls-3" d="M163.34,214.06l8.36,41.87s7.26,3.48,19.56-.74l.44-61.27"/><path class="cls-1" d="M33.47,125.88c2.67-16.15,31.74-20.48,31.74-20.48L56,124.69S32,134.92,33.47,125.88Z"/><path class="cls-2" d="M191.7,193.92s0,12.51-28.36,20.14a163.14,163.14,0,0,1-27,4.54C81,223.78,51.55,205.26,49.48,195.85c0,0-23.47-51.47-16-70a9.65,9.65,0,0,1,8.6-6.47A15.66,15.66,0,0,1,55.15,124c6.58,6.49,9.6,18.81,11.73,30.86,2,11.13,3.18,22,5.71,27.94,0,0,3.18-.25,8.5-.59C109.45,180.41,198.69,176.08,191.7,193.92Z"/><path class="cls-4" d="M154.33,101c3.45-1.3,2.91-2.72,4-8.57,0,0,4.08-4.22,8.3-5.18s13.84-22.37-5-29.93c0,0,2.08-31.85-26.73-17.63,0,0-3.56.52-5.49-1.78,0,0-17.55-15.63-26.81,15.41,0,0-31.76,20.68-4.89,33l1.76,2.85L102.21,72s-9.34-12.3,2.81-6.67c0,0,4.47.89,6.86-4.29,0,0,8,6.5,11.07,6.77,1,3.83-8.12,12.35-9.55,19C113.4,86.85,150.88,102.29,154.33,101Z"/><path class="cls-5" d="M99.24,88s-34.93,1-43.48,37.49c0,0,9.54,31.1,23.76,28.58l65.83-6.57,1.48-15s15.48-7.41,16.51-10-7.86-34.13-48.51-35.66"/><path class="cls-6" d="M113.65,87.09c0,3.11.45,5.39-4.78,5.39s-9.57-1.63-9.57-4.74,6.48-6.52,11.71-6.52S113.65,84,113.65,87.09Z"/><path class="cls-7" d="M102.21,72s-9.8-12.56,2.81-6.67c0,0,5.12.38,6.86-4.29,0,0,8.09,6.62,11.07,6.77s-3.39,16.59-8.08,16.67a2.89,2.89,0,0,0-1.22,2.38L99.24,88"/><line class="cls-8" x1="100.74" y1="66.3" x2="104.59" y2="70"/><path class="cls-8" d="M109.78,74s-1.16,2.81,2.27,3.26"/><path class="cls-8" d="M115.11,69.26s5.11,3.85-.89,4.74"/><ellipse class="cls-8" cx="112.05" cy="67.88" rx="0.42" ry="0.78"/><ellipse class="cls-8" cx="118.78" cy="69.26" rx="0.44" ry="0.67"/><path class="cls-6" d="M115.33,117.15l-6.42-.77L70.54,133.67l1.31,20.18s30.42-16,32.54-22.18c0,0-2.08-3.35,0-4.15"/><polyline class="cls-1" points="71.8 183.6 66.88 154.87 71.83 152.21 79.53 154.06 81.09 182.22"/><path class="cls-9" d="M113.28,84.64s-8-1.43-7.16-5.53"/><path class="cls-3" d="M79.52,154.06a26.35,26.35,0,0,0,1.57,28.16s121.68-6,109.83,15l42.27,44.41C243,240.37,249,231,249,231L216.1,161.09c-4.25-31.36-44.25-18.47-44.25-18.47l-27.8,4.45h0"/><path class="cls-10" d="M121.13,100.54h24.05s6.17,1.53,1.58,8.3-14.22,27.95-14.22,27.95-1.53,4.15-11,2.27l-16.84.49s-6.27-2.16-.74-9,14-27.64,14-27.64S118.12,101.09,121.13,100.54Z"/><path class="cls-11" d="M123.8,100.54h24s6.17,1.53,1.58,8.3-14.22,27.95-14.22,27.95-2,5.08-11.41,3.2l-16.39-.44s-6.27-2.16-.74-9,14-27.64,14-27.64S120.79,101.09,123.8,100.54Z"/><polygon class="cls-7" points="174.96 269.26 173.86 256.63 188.99 255.9 188.3 269.26 174.96 269.26"/><path class="cls-12" d="M172,269.26v23.93h18.37v-3l7.58,3H213s-27.41-14.6-22.67-16.67v-7.26Z"/><polyline class="cls-7" points="234.57 241.63 242.17 251.75 253.73 245.43 247.43 233.09"/><path class="cls-12" d="M239.6,253.14l11.76,20.64,16-9.29-1.48-2.37,7.5-.69,13.83-8.29s-22.81,1.77-27.56-2.57l-3.95-6.52Z"/><path class="cls-7" d="M112.54,115h-8L60.22,136.65l6.66,18.22s35-18.28,36.63-24.7c0,0,8.34.74,10.76-.29"/><ellipse class="cls-7" cx="112.54" cy="127.9" rx="8.84" ry="1.98"/><ellipse class="cls-7" cx="114.96" cy="123.95" rx="8.84" ry="1.98"/><ellipse class="cls-7" cx="116.25" cy="120.53" rx="8.84" ry="1.98"/><ellipse class="cls-7" cx="112.54" cy="116.94" rx="8.84" ry="1.98"/><polyline class="cls-13" points="145.92 141.7 147.85 146.46 171.85 142.52 163.34 122.5 146.3 135.85"/><path class="cls-7" d="M143.51,130.12l9.06,15.46,19.28-3s-15.3-27.41-28.15-27.1"/><ellipse class="cls-7" cx="141.02" cy="117.38" rx="7.72" ry="1.95"/><path class="cls-7" d="M146.86,122c0,1.33-4.13.91-8.69.91s-8.24-1.08-8.24-2.42,3.69-2.42,8.24-2.42S146.86,120.64,146.86,122Z"/><path class="cls-7" d="M147.85,124c0,.84-4.94,2-9.27,2s-7.84-.68-7.84-1.52,3.51-1.52,7.84-1.52S147.85,123.11,147.85,124Z"/><ellipse class="cls-7" cx="140.86" cy="127.45" rx="7.33" ry="1.96"/></svg>