<svg xmlns="http://www.w3.org/2000/svg" viewBox="0 0 800 1000"><defs><style>.cls-1{fill:#2ebca1;}.cls-1,.cls-3{opacity:0.7;}.cls-2{fill:#ffc1c2;}.cls-3{fill:#f9989d;}</style></defs><g id="Capa_1" data-name="Capa 1"><path class="cls-1" d="M245.29,480.44c-6.15,31.52-31.24,55.2-61.19,55.2-8,0-14.46,7.25-14.46,16.2S176.11,568,184.1,568c45.83,0,83.89-37.92,90.53-87.22,28.06-3.4,54-17.41,74-40.34a17.61,17.61,0,0,0-.21-22.91,13.39,13.39,0,0,0-20.45.23c-17.73,20.29-41.45,31.45-66.79,31.45-51.55,0-93.49-47-93.49-104.75,0-8.95-6.47-16.2-14.46-16.2s-14.45,7.25-14.45,16.2C138.8,414.07,185.29,471.67,245.29,480.44Z"/><path class="cls-1" d="M306.51,621c0-9-6.48-16.2-14.46-16.2-67.5,0-122.41,61.53-122.41,137.15,0,.78,0,1.57,0,2.35A110.24,110.24,0,0,0,153.25,743c-8,0-14.45,7.25-14.45,16.2s6.47,16.2,14.45,16.2c51.56,0,93.5,47,93.5,104.75,0,9,6.47,16.2,14.45,16.2s14.46-7.25,14.46-16.2c0-57.48-31.73-106.78-76.59-127.14-.34-3.67-.52-7.39-.52-11.09,0-57.76,41.95-104.75,93.5-104.75C300,637.15,306.51,629.9,306.51,621Z"/><path class="cls-2" d="M646.75,518.36c-30,0-55-23.68-61.2-55.19,60-8.78,106.5-66.38,106.5-136,0-8.94-6.48-16.19-14.46-16.19s-14.46,7.25-14.46,16.19C663.13,385,621.19,432,569.64,432c-25.34,0-49.06-11.17-66.79-31.45a13.38,13.38,0,0,0-20.44-.24,17.6,17.6,0,0,0-.21,22.91c20.05,22.93,45.95,36.94,74,40.34,6.64,49.31,44.71,87.23,90.54,87.23,8,0,14.45-7.25,14.45-16.2S654.73,518.36,646.75,518.36Z"/><path class="cls-2" d="M600.48,708.42a110.11,110.11,0,0,0-16.42,1.27c0-.78,0-1.56,0-2.35,0-75.62-54.92-137.15-122.41-137.15-8,0-14.46,7.25-14.46,16.2s6.47,16.2,14.46,16.2c51.55,0,93.49,47,93.49,104.75,0,3.71-.17,7.42-.52,11.09-44.85,20.37-76.59,69.67-76.59,127.14,0,8.95,6.48,16.2,14.46,16.2S507,854.52,507,845.57c0-57.76,41.94-104.75,93.49-104.75,8,0,14.46-7.25,14.46-16.2S608.47,708.42,600.48,708.42Z"/></g><g id="Слой_2" data-name="Слой 2"><path class="cls-3" d="M400,35.39C386.15,14,363.67,0,338.31,0,292.7,0,233.25,28.9,178.9,77.41c-32.62,15.71-55.53,52.06-55.53,94.3a113.09,113.09,0,0,0,6.55,38.16c-56.37,12.25-99.08,67.94-99.08,134.62a150.82,150.82,0,0,0,5.55,40.7C13.15,410.89,0,445.84,0,482.72a148,148,0,0,0,21.62,77.7C7.46,583.34,0,610.08,0,638.23c0,49.87,24.26,95.55,62.68,119.64a174.7,174.7,0,0,0-1,18.59c0,67.26,39.16,126.73,96,147,24.71,47.39,69.73,76.54,119,76.54,34.36,0,65.82-14.17,90-37.58A47.9,47.9,0,0,1,400,948.91ZM385.54,294.93c-13-11.55-29.4-18.47-47.23-18.47-8,0-14.45,7.25-14.45,16.2s6.47,16.2,14.45,16.2c26,0,47.23,23.73,47.23,52.91V751.14c-18-26-43.32-45.59-73.13-54.57-7.7-2.31-15.64,2.8-17.71,11.44s2.5,17.53,10.21,19.85c47.48,14.29,80.63,62.7,80.63,117.71,0,67.29-48.86,122-108.91,122-40.54,0-77.48-25-96.41-65.35a14.92,14.92,0,0,0-9-8.1c-47.45-14.3-80.59-62.7-80.59-117.69A137.29,137.29,0,0,1,92.8,752c1.36-7.45-2.09-15-8.29-18-33.77-16.82-55.59-54.38-55.59-95.69a113.44,113.44,0,0,1,12.64-52.66c21.59,21.32,49.88,34.3,80.85,34.3,8,0,14.46-7.25,14.46-16.2s-6.48-16.2-14.46-16.2c-51.55,0-93.49-47-93.49-104.75,0-31.09,12.24-60.4,33.59-80.39a17.51,17.51,0,0,0,4.13-18.52,115,115,0,0,1-6.88-39.32c0-57.76,41.94-104.75,93.49-104.75s93.5,47,93.5,104.75c0,8.95,6.47,16.2,14.45,16.2s14.46-7.25,14.46-16.2c0-72.66-50.7-132.27-114.54-136.83a76.19,76.19,0,0,1-8.83-35.95c0-28.88,15.64-53.73,37.93-64.49a13.85,13.85,0,0,0,2.52-1.14,56.51,56.51,0,0,1,22.2-4.57c24.21,0,45.82,15.17,56.4,39.58,3.49,8,12.14,11.41,19.32,7.5s10.18-13.6,6.69-21.65C285.27,99.07,262.41,79,236.08,72,273,46.72,309.31,32.4,338.31,32.4c26,0,47.23,23.73,47.23,52.91Z"/><path class="cls-1" d="M400,948.91a47.9,47.9,0,0,1,33.39,13.51c24.16,23.41,55.62,37.58,90,37.58,49.23,0,94.25-29.15,119-76.54,56.82-20.27,96-79.74,96-147a174.7,174.7,0,0,0-1-18.59C775.74,733.78,800,688.1,800,638.23c0-28.15-7.46-54.89-21.62-77.81A148,148,0,0,0,800,482.72c0-36.88-13.15-71.83-36.39-97.53a150.82,150.82,0,0,0,5.55-40.7c0-66.68-42.71-122.37-99.08-134.62a113.09,113.09,0,0,0,6.55-38.16c0-42.24-22.91-78.59-55.53-94.3C566.75,28.9,507.3,0,461.69,0,436.33,0,413.85,14,400,35.39Zm14.46-863.6c0-29.18,21.19-52.91,47.23-52.91,29,0,65.33,14.32,102.23,39.55-26.33,7.09-49.19,27.12-61.27,55-3.49,8.05-.49,17.74,6.69,21.65s15.83.55,19.32-7.5c10.58-24.41,32.19-39.58,56.4-39.58a56.51,56.51,0,0,1,22.2,4.57,13.85,13.85,0,0,0,2.52,1.14c22.29,10.76,37.93,35.61,37.93,64.49a76.19,76.19,0,0,1-8.83,35.95C575,212.22,524.34,271.83,524.34,344.49c0,8.95,6.47,16.2,14.46,16.2s14.45-7.25,14.45-16.2c0-57.76,41.94-104.75,93.5-104.75s93.49,47,93.49,104.75a115,115,0,0,1-6.88,39.32,17.51,17.51,0,0,0,4.13,18.52c21.35,20,33.59,49.3,33.59,80.39,0,57.76-41.94,104.75-93.49,104.75-8,0-14.46,7.25-14.46,16.2s6.48,16.2,14.46,16.2c31,0,59.26-13,80.85-34.3a113.44,113.44,0,0,1,12.64,52.66c0,41.31-21.82,78.87-55.59,95.69-6.2,3.09-9.65,10.59-8.29,18a137.29,137.29,0,0,1,2.2,24.5c0,55-33.14,103.39-80.59,117.69a14.92,14.92,0,0,0-9,8.1c-18.93,40.31-55.87,65.35-96.41,65.35-60.05,0-108.91-54.74-108.91-122,0-55,33.15-103.42,80.63-117.71,7.71-2.32,12.28-11.21,10.21-19.85s-10-13.75-17.71-11.44c-29.81,9-55.16,28.59-73.13,54.57V361.77c0-29.18,21.19-52.91,47.23-52.91,8,0,14.45-7.26,14.45-16.2s-6.47-16.2-14.45-16.2c-17.83,0-34.24,6.92-47.23,18.47Z"/></g></svg>